HIERARCHY
ROOT Hips
{
	OFFSET 0.00000 0.00000 0.00000
	CHANNELS 6 Xposition Yposition Zposition Zrotation Yrotation Xrotation 
	JOINT RightUpLegDummy
	{
		OFFSET 0 0 0
		CHANNELS 3 Zrotation Yrotation Xrotation
		JOINT RightUpLeg
		{
			OFFSET -3.52197 -3.41223 0.04002
			CHANNELS 3 Zrotation Yrotation Xrotation
			JOINT RightLeg
			{
				OFFSET 0.00006 -17.42390 1.60435
				CHANNELS 3 Zrotation Yrotation Xrotation
				JOINT RightFoot
				{
					OFFSET 0.06153 -16.50078 -1.63901
					CHANNELS 3 Zrotation Yrotation Xrotation
					JOINT RightToes
					{
						OFFSET 0.00298 -1.73825 3.34613
						CHANNELS 3 Zrotation Yrotation Xrotation
						End Site
						{
							OFFSET 0.00480 -0.05416 3.85043
						}
					}
				}
			}
		}
	}
	JOINT SpineDummy
	{
		OFFSET 0 0 0
		CHANNELS 3 Zrotation Yrotation Xrotation
		JOINT Spine
		{
			OFFSET 0.00000 4.68130 0.00000
			CHANNELS 3 Zrotation Yrotation Xrotation
			JOINT Spine1
			{
				OFFSET -0.00000 10.10138 0.05002
				CHANNELS 3 Zrotation Yrotation Xrotation
				JOINT HEadDummy
				{
					OFFSET 0 0 0
					CHANNELS 3 Zrotation Yrotation Xrotation
					JOINT Head
					{
						OFFSET -0.00000 3.43865 0.00438
						CHANNELS 3 Zrotation Yrotation Xrotation
						End Site
						{
							OFFSET -0.11417 5.02924 0.98962
						}
					}
				}
				JOINT LeftShoulder1Dummy
				{
					OFFSET 0 0 0
					CHANNELS 3 Zrotation Yrotation Xrotation
					JOINT LeftShoulder1
					{
						OFFSET 3.53937 -0.14262 -0.08662
						CHANNELS 3 Zrotation Yrotation Xrotation
						JOINT LeftArm
						{
							OFFSET 4.04833 -0.00133 0.12681
							CHANNELS 3 Zrotation Yrotation Xrotation
							JOINT LeftForeArm
							{
								OFFSET 10.33880 -0.01036 -0.55515
								CHANNELS 3 Zrotation Yrotation Xrotation
								JOINT LeftHand
								{
									OFFSET 8.69677 0.07543 0.40060
									CHANNELS 3 Zrotation Yrotation Xrotation
									End Site
									{
										OFFSET 5.28377 -0.21905 0.59205
									}
								}
							}
						}
					}
				}
				JOINT RightShoulderDummy
				{
					OFFSET 0 0 0
					CHANNELS 3 Zrotation Yrotation Xrotation
					JOINT RightShoulder
					{
						OFFSET -3.53937 -0.14262 -0.08660
						CHANNELS 3 Zrotation Yrotation Xrotation
						JOINT RightArm
						{
							OFFSET -4.04833 -0.00133 0.12683
							CHANNELS 3 Zrotation Yrotation Xrotation
							JOINT RightForeArm
							{
								OFFSET -10.37987 -0.01039 -0.55511
								CHANNELS 3 Zrotation Yrotation Xrotation
								JOINT RightHand
								{
									OFFSET -8.67398 0.07538 0.40058
									CHANNELS 3 Zrotation Yrotation Xrotation
									End Site
									{
										OFFSET -5.24810 -0.21916 0.59204
									}
								}
							}
						}
					}
				}
			}
		}
	}
	JOINT LeftUpLegDummy
	{
		OFFSET 0 0 0
		CHANNELS 3 Zrotation Yrotation Xrotation
		JOINT LeftUpLeg
		{
			OFFSET 3.52197 -3.41223 0.04002
			CHANNELS 3 Zrotation Yrotation Xrotation
			JOINT LeftLeg
			{
				OFFSET -0.00012 -17.42399 1.60337
				CHANNELS 3 Zrotation Yrotation Xrotation
				JOINT LeftFoot
				{
					OFFSET -0.09972 -16.50070 -1.63802
					CHANNELS 3 Zrotation Yrotation Xrotation
					JOINT LeftToes
					{
						OFFSET -0.01575 -1.73823 3.34611
						CHANNELS 3 Zrotation Yrotation Xrotation
						End Site
						{
							OFFSET 0.03150 -0.01868 3.85031
						}
					}
				}
			}
		}
	}
}
MOTION
Frames: 8
Frame Time: 0.033333
25.0324 39.9543 67.7597 -178.4430 5.1712 177.2970 0.0000 0.0000 0.0000 1.8530 -1.2835 1.7070 -0.6897 0.0348 3.8923 -1.9307 0.1209 -3.2351 0.0000 -0.0000 0.0000 0.0000 0.0000 0.0000 0.0860 -0.1733 -0.2541 4.0861 -1.1020 3.8839 -0.0000 0.0000 -0.0000 0.2230 5.4525 -6.7851 -0.0000 0.0000 -0.0000 -33.7566 -2.8288 2.5190 -45.3591 -15.8244 -16.4715 -10.5673 4.9984 52.1573 16.8969 -3.3916 -1.2551 -0.0000 0.0000 -0.0000 35.0216 5.2484 3.6129 39.0165 7.2150 -17.1566 10.5740 -1.4952 23.3721 -10.5879 2.8419 -0.7221 0.0000 0.0000 0.0000 2.3390 2.3613 2.5168 1.0923 3.9592 6.4561 2.4461 -0.0692 -6.3971 0.0000 0.0000 -0.0000
25.0305 39.9543 67.7597 -178.4430 5.1712 177.2970 0.0000 0.0000 0.0000 1.8518 -1.2683 1.6886 -0.7170 0.0331 3.9164 -1.9063 0.1193 -3.2528 0.0000 -0.0000 0.0000 0.0000 0.0000 0.0000 0.0877 -0.1462 -0.2620 4.0718 -1.0706 3.8839 -0.0000 0.0000 -0.0000 0.2261 5.4217 -6.7949 -0.0000 0.0000 -0.0000 -33.7262 -2.8482 2.5190 -45.3966 -15.8373 -16.4712 -10.5623 5.0004 52.1778 16.9085 -3.4343 -1.2619 -0.0000 0.0000 -0.0000 35.0112 5.2484 3.6129 39.0549 7.1896 -17.1990 10.5529 -1.4944 23.4496 -10.6468 2.7963 -0.7199 0.0000 0.0000 0.0000 2.3274 2.3613 2.5168 1.1004 3.9783 6.4505 2.4861 -0.0718 -6.3972 0.0000 0.0000 -0.0000
25.0279 39.9543 67.7597 -178.4430 5.1672 177.2940 0.0000 0.0000 0.0000 1.8429 -1.2731 1.6844 -0.7178 0.0330 3.9297 -1.9226 0.1204 -3.2630 0.0000 -0.0000 0.0000 0.0000 0.0000 0.0000 0.0990 -0.1172 -0.2716 4.0176 -1.0291 3.8894 -0.0000 0.0000 -0.0000 0.2005 5.3972 -6.7697 -0.0000 0.0000 -0.0000 -33.6357 -2.8684 2.5190 -45.4857 -15.8440 -16.4711 -10.5553 5.0034 52.1936 16.9382 -3.4758 -1.2700 -0.0000 0.0000 -0.0000 35.0102 5.2484 3.6129 39.1355 7.1656 -17.3000 10.5021 -1.4857 23.5888 -10.7205 2.6789 -0.7164 0.0000 0.0000 0.0000 2.3159 2.3613 2.5242 1.0997 3.9831 6.4363 2.5010 -0.0727 -6.3973 0.0000 0.0000 -0.0000
25.0260 39.9543 67.7597 -178.4430 5.1552 177.2840 0.0000 0.0000 0.0000 1.8237 -1.2921 1.6994 -0.6974 0.0343 3.9284 -1.9500 0.1222 -3.2622 0.0000 -0.0000 0.0000 0.0000 0.0000 0.0000 0.0976 -0.1004 -0.2837 3.9745 -1.0026 3.9108 -0.0000 0.0000 -0.0000 0.1813 5.3911 -6.7659 -0.0000 0.0000 -0.0000 -33.5588 -2.8827 2.5190 -45.5613 -15.8473 -16.4751 -10.5451 5.0036 52.1896 16.9827 -3.4845 -1.2747 -0.0000 0.0000 -0.0000 35.0215 5.2484 3.6129 39.2070 7.1624 -17.4024 10.4498 -1.4580 23.6653 -10.7678 2.5568 -0.7138 0.0000 0.0000 0.0000 2.3159 2.3718 2.5381 1.0812 3.9597 6.4336 2.4790 -0.0713 -6.4017 0.0000 0.0000 -0.0000
25.0248 39.9543 67.7591 -178.4450 5.1462 177.2750 0.0000 0.0000 0.0000 1.8185 -1.2939 1.7088 -0.6986 0.0281 3.9345 -1.9280 0.1208 -3.2624 0.0000 -0.0000 0.0000 0.0000 0.0000 0.0000 0.0752 -0.0896 -0.3053 3.9798 -0.9925 3.9446 -0.0000 0.0000 -0.0000 0.2860 5.3714 -6.9263 -0.0000 0.0000 -0.0000 -33.5846 -2.8899 2.5190 -45.5414 -15.8633 -16.5019 -10.5269 5.0035 52.1997 16.9932 -3.5265 -1.2814 -0.0000 0.0000 -0.0000 35.0343 5.2495 3.6129 39.2271 7.1695 -17.4282 10.4329 -1.4067 23.5905 -10.8203 2.4646 -0.7113 0.0000 0.0000 0.0000 2.3239 2.3876 2.5384 1.0589 3.9328 6.4527 2.4764 -0.0711 -6.4096 0.0000 0.0000 -0.0000
25.0233 39.9543 67.7584 -178.4360 5.1413 177.2770 0.0000 0.0000 0.0000 1.8350 -1.2747 1.7108 -0.7225 0.0089 3.9440 -1.8872 0.1182 -3.2633 0.0000 -0.0000 0.0000 0.0000 0.0000 0.0000 0.0679 -0.0803 -0.3385 3.9898 -0.9863 3.9875 -0.0000 0.0000 -0.0000 0.5305 5.3302 -7.2466 -0.0000 0.0000 -0.0000 -33.6760 -2.8808 2.5190 -45.4522 -15.9002 -16.5558 -10.4980 5.0025 52.2432 16.9522 -3.6255 -1.2920 -0.0000 0.0000 -0.0000 35.0483 5.2518 3.6129 39.2057 7.1683 -17.3672 10.4556 -1.3363 23.4302 -10.8714 2.3748 -0.7073 0.0000 0.0000 0.0000 2.3370 2.4001 2.5216 1.0474 3.9171 6.4850 2.5117 -0.0734 -6.4212 0.0000 0.0000 -0.0000
25.0206 39.9543 67.7571 -178.4200 5.1328 177.2840 0.0000 0.0000 0.0000 1.8562 -1.2582 1.7096 -0.7386 -0.0119 3.9395 -1.8877 0.1182 -3.2647 0.0000 -0.0000 0.0000 0.0000 0.0000 0.0000 0.0966 -0.0689 -0.3778 3.9557 -0.9702 4.0363 -0.0000 0.0000 -0.0000 0.7421 5.2963 -7.5161 -0.0000 0.0000 -0.0000 -33.7048 -2.8587 2.5190 -45.4201 -15.9563 -16.6147 -10.4612 5.0012 52.2974 16.9555 -3.6879 -1.3010 -0.0000 0.0000 -0.0000 35.0755 5.2546 3.6129 39.1764 7.1471 -17.2906 10.4852 -1.2641 23.3264 -10.8544 2.2866 -0.6990 0.0000 0.0000 0.0000 2.3533 2.4108 2.5028 1.0417 3.9000 6.5138 2.5433 -0.0754 -6.4376 0.0000 0.0000 -0.0000
25.0172 39.9543 67.7547 -178.4120 5.1203 177.2890 0.0000 0.0000 0.0000 1.8572 -1.2616 1.7082 -0.7356 -0.0199 3.9270 -1.9119 0.1198 -3.2661 0.0000 -0.0000 0.0000 0.0000 0.0000 0.0000 0.1278 -0.0481 -0.4145 3.8985 -0.9391 4.0801 -0.0000 0.0000 -0.0000 0.7667 5.2807 -7.5758 -0.0000 0.0000 -0.0000 -33.6325 -2.8464 2.5190 -45.4937 -16.0236 -16.6638 -10.4193 4.9999 52.3571 17.0783 -3.6577 -1.3065 -0.0000 0.0000 -0.0000 35.1186 5.2573 3.6129 39.1493 7.1077 -17.2622 10.4954 -1.2114 23.3003 -10.7714 2.2402 -0.6895 0.0000 0.0000 0.0000 2.3606 2.4205 2.4990 1.0290 3.8779 6.5178 2.5468 -0.0757 -6.4465 0.0000 0.0000 -0.0000
